# xmcd
#
# Track frame offsets:
#	150
#	17107
#	37002
#	60780
#	80067
#	98782
#	123500
#	139700
#	161452
#	180547
#	197505
#	219452
#
# Disc length: 3312 seconds
#
# Revision: 1
# Processed by: cddbd v1.4PL0 Copyright (c) Steve Scherf et al.
# Submitted via: audiograbber 1.81.03
#
DISCID=9b0cee0c
DTITLE=Various Artist - Acoustic Blue Chicago
DYEAR=1999
DGENRE=Blues
TTITLE0=Johnny B. Moore - Ludella
TTITLE1=Johnny B. Moore - Got To Find My Baby
TTITLE2=Willie Kent - Looks Like It's Gonna Rain
TTITLE3=Johnny B. Moore - Baby How Long
TTITLE4=Lester Davenport - Tell Me Mama
TTITLE5=Johnny B. Moore - No Way To Get Along
TTITLE6=Bonnie Lee - Fast Life
TTITLE7=Johnny B Moore - Don't Blame Shorty For That
TTITLE8=Willie Kent - Look On Yonder's Wall
TTITLE9=Johnny B. Moore - Shake The Boogie
TTITLE10=Johnny B. Moore -  Goin' Away Baby
TTITLE11=Johnny Willie, Lester and Bonnie - All Night Long
EXTD=
EXTT0=
EXTT1=
EXTT2=
EXTT3=
EXTT4=
EXTT5=
EXTT6=
EXTT7=
EXTT8=
EXTT9=
EXTT10=
EXTT11=
PLAYORDER=
